<!--?xml version="1.0" encoding="utf-8"?-->
<!-- Generator: Adobe Illustrator 18.1.1, SVG Export Plug-In . SVG Version: 6.00 Build 0)  -->

<svg version="1.1" id="_x32_" xmlns="http://www.w3.org/2000/svg" xmlns:xlink="http://www.w3.org/1999/xlink" x="0px" y="0px" viewBox="0 0 512 512" style="width: 256px; height: 256px; opacity: 1;" xml:space="preserve">
<style type="text/css">
	.st0{fill:#4B4B4B;}
</style>
<g>
	<path class="st0" d="M307.701,138.952L185.42,87.148l-17.522,41.359c-65.365,0.302-127.386,38.815-154.502,102.815
		c-36.313,85.716,3.736,184.64,89.457,220.953c85.716,36.314,184.644-3.731,220.958-89.456
		c27.115-63.992,11.624-135.338-33.63-182.509L307.701,138.952z M161.126,232.882c-7.977,18.825-29.714,27.628-48.544,19.651
		c-18.83-7.977-27.629-29.709-19.652-48.536c7.977-18.834,29.714-27.646,48.544-19.66
		C160.304,192.306,169.104,214.055,161.126,232.882z" style="fill: rgb(0, 0, 0);"></path>
	<path class="st0" d="M428.618,182.82c-5.48,5.434-12.475,9.124-19.976,10.631c-7.506,1.499-15.432,0.859-23.046-2.359
		c-10.032-4.262-17.298-12.079-21.101-21.446c-3.786-9.366-4.013-20.038,0.236-30.071c7.215-17.015,6.849-35.47,0.413-51.332
		c-6.406-15.886-18.986-29.389-35.996-36.591c-17.011-7.21-35.467-6.857-51.328-0.405c-15.874,6.41-29.386,18.986-36.582,36.002
		l-4.288,10.116l25.552,10.824l4.288-10.108c4.258-10.049,12.082-17.302,21.442-21.118c9.379-3.782,20.047-4.001,30.093,0.245
		c10.028,4.262,17.292,12.079,21.104,21.446c3.774,9.367,4.002,20.047-0.244,30.088c-7.214,17.016-6.852,35.462-0.408,51.315
		c6.405,15.87,18.978,29.398,35.997,36.582c12.858,5.459,26.588,6.596,39.35,4.01c12.766-2.57,24.634-8.811,34.022-18.102
		c5.446-5.391,5.492-14.186,0.097-19.626C442.85,177.48,434.064,177.43,428.618,182.82z" style="fill: rgb(0, 0, 0);"></path>
	<path class="st0" d="M444.387,156.574c2.716,0.084,4.994-2.055,5.075-4.785l1.958-24.293c0.106-3.411-2.577-6.25-5.984-6.334
		c-3.403-0.11-6.246,2.561-6.348,5.964l0.514,24.36C439.522,154.215,441.67,156.481,444.387,156.574z" style="fill: rgb(0, 0, 0);"></path>
	<path class="st0" d="M442.589,222.74c-2.721-0.084-5,2.056-5.08,4.776l-1.958,24.309c-0.097,3.403,2.586,6.234,5.984,6.352
		c3.408,0.092,6.254-2.595,6.356-5.998l-0.518-24.36C447.458,225.089,445.318,222.816,442.589,222.74z" style="fill: rgb(0, 0, 0);"></path>
	<path class="st0" d="M413.869,165.317c1.87,1.971,4.995,2.073,6.974,0.202c1.98-1.87,2.081-4.995,0.206-6.974l-15.798-18.549
		c-2.338-2.494-6.237-2.61-8.714-0.27c-2.484,2.326-2.598,6.234-0.256,8.71L413.869,165.317z" style="fill: rgb(0, 0, 0);"></path>
	<path class="st0" d="M473.106,213.996c-1.87-1.971-4.99-2.065-6.974-0.202c-1.98,1.862-2.076,4.995-0.21,6.975l15.798,18.556
		c2.342,2.485,6.242,2.594,8.726,0.253c2.478-2.325,2.594-6.232,0.253-8.709L473.106,213.996z" style="fill: rgb(0, 0, 0);"></path>
	<path class="st0" d="M506.012,185.247l-24.372,0.522c-2.718-0.084-4.995,2.064-5.08,4.784c-0.08,2.73,2.072,4.988,4.797,5.071
		l24.29,1.971c3.407,0.102,6.25-2.594,6.351-5.998C512.09,188.204,509.42,185.348,506.012,185.247z" style="fill: rgb(0, 0, 0);"></path>
	<path class="st0" d="M474.597,167.213l18.557-15.794c2.486-2.334,2.599-6.233,0.266-8.718c-2.342-2.486-6.238-2.595-8.719-0.262
		l-16.871,17.588c-1.984,1.878-2.073,4.995-0.206,6.975C469.489,168.99,472.614,169.091,474.597,167.213z" style="fill: rgb(0, 0, 0);"></path>
</g>
</svg>
