<!--?xml version="1.0" encoding="utf-8"?-->
<!-- Generator: Adobe Illustrator 15.1.0, SVG Export Plug-In . SVG Version: 6.00 Build 0)  -->

<svg version="1.1" id="_x32_" xmlns="http://www.w3.org/2000/svg" xmlns:xlink="http://www.w3.org/1999/xlink" x="0px" y="0px" viewBox="0 0 512 512" style="width: 256px; height: 256px; opacity: 1;" xml:space="preserve">
<style type="text/css">

	.st0{fill:#4B4B4B;}

</style>
<g>
	<path class="st0" d="M254.031,292.625c0.672,0,1.313-0.094,1.969-0.094c0.672,0,1.313,0.094,1.969,0.094
		c95.547,0,173-77.453,173-173c0-23.875-4.844-46.641-13.594-67.344c-6.25-14.078-14.641-26.469-14.641-26.469
		c-1.953-3.531-5.531-5.813-9.547-6.125c-4-0.281-7.891,1.469-10.328,4.656l-49.797,65.125L267.391,4.625
		C265.125,1.719,261.656,0,257.969,0c-0.672,0-1.313,0.125-1.969,0.234C255.359,0.125,254.703,0,254.031,0
		c-3.688,0-7.156,1.719-9.406,4.625l-65.688,84.844l-49.797-65.125c-2.438-3.188-6.328-4.938-10.328-4.656
		c-4.016,0.313-7.594,2.594-9.547,6.125c0,0-8.391,12.391-14.641,26.469c-8.75,20.703-13.594,43.469-13.594,67.344
		C81.031,215.172,158.484,292.625,254.031,292.625z" style="fill: rgb(226, 0, 0);"></path>
	<path class="st0" d="M156.844,378.953c-37.594-28.875-84.953-33.578-119.469-15.422c-8.594,38.031,8.188,82.563,45.781,111.422
		s84.938,33.547,119.469,15.422C211.219,452.344,194.453,407.813,156.844,378.953z" style="fill: rgb(226, 0, 0);"></path>
	<path class="st0" d="M474.625,365.531c-34.516-18.156-81.875-13.453-119.469,15.422c-37.594,28.859-54.375,73.391-45.781,111.422
		c34.531,18.125,81.875,13.438,119.469-15.422S483.219,403.563,474.625,365.531z" style="fill: rgb(226, 0, 0);"></path>
	<path class="st0" d="M232,322.266V512h48V322.266c-7.813,1.281-15.828,1.984-24,1.984S239.813,323.547,232,322.266z" style="fill: rgb(226, 0, 0);"></path>
</g>
</svg>
